# xmcd
#
# Track frame offsets:
# 150
# 9962
# 20667
# 28947
# 39520
# 50005
# 58975
# 68532
# 76260
# 87290
# 97772
# 111872
# 122572
# 134117
# 144522
# 154285
# 167362
# 175907
# 184900
# 195275
# 208072
# 217942
# 229040
# 238425
# 249917
#
# Disc length: 3458 seconds
#
#
# Revision: 0
# Processed by: cddbd v1.5.1PL2 Copyright (c) Steve Scherf et al.
# Submitted via: FreeRIP 2.945 
#
DISCID=570d8019
DTITLE=Sony James - Young Love :The Complete Recordings :1952-62 Disc 5
DYEAR=2002
DGENRE=Country
TTITLE0=Talk Of The School
TTITLE1=This Love Of Mine
TTITLE2=Pure Love
TTITLE3=The Table
TTITLE4=I'll Always Come Back To You
TTITLE5=Who's Next In Line
TTITLE6=Red Mud
TTITLE7=Yes I Know
TTITLE8='Til Tomorrow
TTITLE9='Til The Last Leaf Shall Fall
TTITLE10=I Forget More Than You'll Ever Know
TTITLE11=Passin' Through
TTITLE12=Jenny Lou
TTITLE13=Gold In The Morning Sun
TTITLE14=Wonderin'
TTITLE15=I Wish This Night Would Never End
TTITLE16=Bimbo
TTITLE17=I'll Be There
TTITLE18=Magnetism
TTITLE19=Apache
TTITLE20=Innocent Angel
TTITLE21=Hey Little Ducky
TTITLE22=Listen To My Heart
TTITLE23=Young Love
TTITLE24=Broken Wings
EXTD=Bear Family\nBCD 163735 FK
EXTT0=
EXTT1=
EXTT2=
EXTT3=
EXTT4=
EXTT5=
EXTT6=
EXTT7=
EXTT8=
EXTT9=
EXTT10=
EXTT11=
EXTT12=
EXTT13=
EXTT14=
EXTT15=
EXTT16=
EXTT17=
EXTT18=
EXTT19=
EXTT20=
EXTT21=
EXTT22=
EXTT23=
EXTT24=
PLAYORDER=
